# xmcd CD database file
#
# Track frame offsets:
#	150
#	24101
#	44486
#	65561
#	93355
#	114722
#	135821
#	159834
#	185755
#	225668
#	256949
#
# Disc length: 3509 seconds
#
# Revision: 0
# Processed by: cddbd v1.5.2PL0 Copyright (c) Steve Scherf et al.
# Submitted via: CDex 1.51
#
DISCID=850db30b
DTITLE=Jeff Olmsted - A Chorus In Miracles
DYEAR=1900
DGENRE=New Age
TTITLE0=Into His presence would I enter now.
TTITLE1=I do no know what anything is for.
TTITLE2=My meaningless thoughts are showing me a meaningless world.
TTITLE3=Your grace is given me. I clain it now.
TTITLE4=Heaven is the decision I must make.
TTITLE5=I trust my brothers who are one with me.
TTITLE6=The hush of heaven holds my heart today.
TTITLE7=Love is the way I walk in gratitude.
TTITLE8=The gift of Christ is all I seek today.
TTITLE9=I am not a body.  I am free,
TTITLE10=God is the mind with which I think.
EXTD=
EXTT0=
EXTT1=
EXTT2=
EXTT3=
EXTT4=
EXTT5=
EXTT6=
EXTT7=
EXTT8=
EXTT9=
EXTT10=
PLAYORDER=
